<?xml version="1.0" encoding="UTF-8"?><svg id="a" xmlns="http://www.w3.org/2000/svg" viewBox="0 0 271 160"><defs><style>.b{fill:#4f5e6a;}.c{fill:#7eba33;}</style></defs><g><path class="b" d="M13.37,115.15l-3.83-9.78-1.88,3.74v6.05h-2.61v-21.63h2.61v10.97l5.23-10.97h2.67l-4.38,8.93,5.01,12.7h-2.83Z"/><path class="b" d="M25.34,113.94c-.79,1.06-1.94,1.46-3.34,1.46s-2.52-.39-3.31-1.46c-.97-1.25-1.15-3.46-1.15-6.65s.18-5.41,1.15-6.65c.79-1.06,1.91-1.46,3.31-1.46s2.55,.39,3.34,1.46c.97,1.25,1.12,3.46,1.12,6.65s-.15,5.41-1.12,6.65Zm-1.94-11.88c-.3-.43-.82-.67-1.4-.67s-1.06,.24-1.37,.67c-.58,.79-.64,2.4-.64,5.23s.06,4.44,.64,5.23c.3,.43,.79,.67,1.37,.67s1.09-.24,1.4-.67c.58-.79,.61-2.4,.61-5.23s-.03-4.44-.61-5.23Z"/><path class="b" d="M41.81,115.15v-11.57c0-1.43-.82-2.16-1.85-2.16s-1.85,.73-1.85,2.16v11.57h-2.46v-11.57c0-1.43-.85-2.16-1.88-2.16s-1.85,.73-1.85,2.16v11.57h-2.46v-15.74h2.37v1.21c.21-.36,.64-.76,.97-.97,.49-.3,1.06-.49,1.7-.49,1.22,0,2.37,.67,3.01,1.64,.33-.43,.79-.88,1.25-1.15,.49-.3,1.21-.49,1.79-.49,1.37,0,2.16,.39,2.83,1.15,.64,.7,.91,1.55,.91,3.25v11.57h-2.46Z"/><path class="b" d="M55.3,114.21c-.7,.82-1.46,1.18-2.61,1.18-.64,0-1.18-.15-1.7-.46-.3-.21-.64-.55-.88-.88v6.99h-2.46v-21.63h2.4v1.21c.15-.33,.67-.76,.94-.97,.52-.33,1.09-.49,1.7-.49,1.09,0,1.91,.33,2.61,1.15,1,1.18,1.15,3.31,1.15,6.96s-.15,5.74-1.15,6.93Zm-1.97-12.18c-.3-.39-.76-.64-1.34-.64-.52,0-.94,.15-1.28,.49-.39,.39-.61,.94-.61,1.79v7.2c0,.85,.21,1.43,.61,1.82,.33,.33,.76,.49,1.28,.49,.58,0,1.03-.24,1.34-.64,.55-.67,.64-2.01,.64-5.26s-.09-4.59-.64-5.26Z"/><path class="b" d="M61.37,107.86c0,2.49,.09,3.95,.64,4.65,.27,.39,.76,.67,1.4,.67,.55,0,1-.15,1.4-.61,.39-.46,.52-1.06,.52-1.82h2.46c-.03,1.46-.39,2.55-1.28,3.49-.76,.79-1.82,1.15-3.1,1.15s-2.31-.33-3.13-1.22c-1.18-1.25-1.4-3.61-1.4-6.9s.21-5.65,1.37-6.9c.82-.88,1.82-1.21,3.1-1.21s2.28,.33,3.1,1.21c1.18,1.25,1.4,3.59,1.4,7.47h-6.47Zm3.37-5.83c-.3-.39-.73-.64-1.4-.64s-1.06,.24-1.37,.64c-.49,.58-.61,1.7-.61,3.98h3.98c0-2.28-.12-3.4-.61-3.98Z"/><path class="b" d="M72.64,114.18c-.88-.73-1.37-1.88-1.37-3.52v-9.33h-1.79v-1.91h1.79v-4.31h2.46v4.31h2.43v1.91h-2.43v9.24c0,1.67,.88,2.37,2.52,2.37v2.22c-1.4,0-2.61-.12-3.62-.97Z"/><path class="b" d="M80.57,107.86c0,2.49,.09,3.95,.64,4.65,.27,.39,.76,.67,1.4,.67,.55,0,1-.15,1.4-.61,.39-.46,.52-1.06,.52-1.82h2.46c-.03,1.46-.39,2.55-1.28,3.49-.76,.79-1.82,1.15-3.1,1.15s-2.31-.33-3.13-1.22c-1.18-1.25-1.4-3.61-1.4-6.9s.21-5.65,1.37-6.9c.82-.88,1.82-1.21,3.1-1.21s2.28,.33,3.1,1.21c1.18,1.25,1.4,3.59,1.4,7.47h-6.47Zm3.37-5.83c-.3-.39-.73-.64-1.4-.64s-1.06,.24-1.37,.64c-.49,.58-.61,1.7-.61,3.98h3.98c0-2.28-.12-3.4-.61-3.98Z"/><path class="b" d="M96.09,115.15v-11.57c0-1.43-.85-2.16-1.88-2.16s-1.85,.73-1.85,2.16v11.57h-2.46v-15.74h2.37v1.21c.21-.36,.64-.76,.97-.97,.49-.3,1.06-.49,1.7-.49,1.18,0,2.01,.39,2.67,1.15,.64,.7,.94,1.55,.94,3.25v11.57h-2.46Z"/><path class="b" d="M100.89,115.15v-1.88l4.95-11.67h-4.62v-2.19h7.35v1.88l-4.95,11.64h4.95v2.22h-7.69Z"/><path class="b" d="M110.04,115.15v-1.88l4.95-11.67h-4.62v-2.19h7.35v1.88l-4.95,11.64h4.95v2.22h-7.69Z"/><path class="b" d="M122.16,107.86c0,2.49,.09,3.95,.64,4.65,.27,.39,.76,.67,1.4,.67,.55,0,1-.15,1.4-.61,.39-.46,.52-1.06,.52-1.82h2.46c-.03,1.46-.39,2.55-1.28,3.49-.76,.79-1.82,1.15-3.1,1.15s-2.31-.33-3.13-1.22c-1.18-1.25-1.4-3.61-1.4-6.9s.21-5.65,1.37-6.9c.82-.88,1.82-1.21,3.1-1.21s2.28,.33,3.1,1.21c1.18,1.25,1.4,3.59,1.4,7.47h-6.47Zm3.37-5.83c-.3-.39-.73-.64-1.4-.64s-1.06,.24-1.37,.64c-.49,.58-.61,1.7-.61,3.98h3.98c0-2.28-.12-3.4-.61-3.98Z"/><path class="b" d="M137.68,115.15v-11.57c0-1.43-.85-2.16-1.88-2.16s-1.85,.73-1.85,2.16v11.57h-2.46v-15.74h2.37v1.21c.21-.36,.64-.76,.97-.97,.49-.3,1.06-.49,1.7-.49,1.18,0,2.01,.39,2.67,1.15,.64,.7,.94,1.55,.94,3.25v11.57h-2.46Z"/><path class="b" d="M145.43,114.18c-.88-.73-1.37-1.88-1.37-3.52v-9.33h-1.79v-1.91h1.79v-4.31h2.46v4.31h2.43v1.91h-2.43v9.24c0,1.67,.88,2.37,2.52,2.37v2.22c-1.4,0-2.61-.12-3.62-.97Z"/><path class="b" d="M156.7,101.54c-1.67,0-2.86,1.09-2.86,2.89v10.72h-2.46v-15.74h2.37v1.67c.24-.43,.7-.85,1.09-1.12,.73-.52,1.58-.79,2.58-.79v2.37h-.73Z"/><path class="b" d="M165.81,115.15v-1.21c-.21,.36-.64,.76-.97,.97-.49,.3-1.06,.49-1.7,.49-1.18,0-2-.39-2.67-1.15-.64-.7-.94-1.55-.94-3.25v-11.57h2.46v11.57c0,1.46,.85,2.19,1.88,2.19s1.85-.73,1.85-2.19v-11.57h2.46v15.74h-2.37Z"/><path class="b" d="M184.01,115.15v-11.57c0-1.43-.82-2.16-1.85-2.16s-1.85,.73-1.85,2.16v11.57h-2.46v-11.57c0-1.43-.85-2.16-1.88-2.16s-1.85,.73-1.85,2.16v11.57h-2.46v-15.74h2.37v1.21c.21-.36,.64-.76,.97-.97,.49-.3,1.06-.49,1.7-.49,1.22,0,2.37,.67,3.01,1.64,.33-.43,.79-.88,1.25-1.15,.49-.3,1.21-.49,1.79-.49,1.37,0,2.16,.39,2.83,1.15,.64,.7,.91,1.55,.91,3.25v11.57h-2.46Z"/><path class="b" d="M198.56,101.33v13.82h-2.46v-13.82h-1.79v-1.91h1.79v-1.52c0-1.64,.49-2.76,1.37-3.49,.97-.82,2.19-1,3.53-1v2.22c-1.61,0-2.43,.79-2.43,2.37v1.43h2.43v1.91h-2.43Z"/><path class="b" d="M209.4,115.15v-1.21c-.21,.36-.64,.76-.97,.97-.49,.3-1.06,.49-1.7,.49-1.18,0-2-.39-2.67-1.15-.64-.7-.94-1.55-.94-3.25v-11.57h2.46v11.57c0,1.46,.85,2.19,1.88,2.19s1.85-.73,1.85-2.19v-11.57h2.46v15.74h-2.37Zm-5.59-18.26v-2.49h2.49v2.49h-2.49Zm4.77,0v-2.49h2.46v2.49h-2.46Z"/><path class="b" d="M220.55,101.54c-1.67,0-2.86,1.09-2.86,2.89v10.72h-2.46v-15.74h2.37v1.67c.24-.43,.7-.85,1.09-1.12,.73-.52,1.58-.79,2.58-.79v2.37h-.73Z"/><path class="b" d="M5.05,149.02v-21.63h2.61v21.63h-2.61Z"/><path class="b" d="M17.57,149.02v-11.57c0-1.43-.85-2.16-1.88-2.16s-1.85,.73-1.85,2.16v11.57h-2.46v-15.74h2.37v1.21c.21-.36,.64-.76,.97-.97,.49-.3,1.06-.49,1.7-.49,1.18,0,2.01,.39,2.67,1.15,.64,.7,.94,1.55,.94,3.25v11.57h-2.46Z"/><path class="b" d="M26.41,135.19v13.82h-2.46v-13.82h-1.79v-1.91h1.79v-1.52c0-1.64,.49-2.76,1.37-3.49,.97-.82,2.19-1,3.53-1v2.22c-1.61,0-2.43,.79-2.43,2.37v1.43h2.43v1.91h-2.43Z"/><path class="b" d="M38.1,147.8c-.79,1.06-1.94,1.46-3.34,1.46s-2.52-.39-3.31-1.46c-.97-1.25-1.15-3.46-1.15-6.65s.18-5.41,1.15-6.65c.79-1.06,1.91-1.46,3.31-1.46s2.55,.39,3.34,1.46c.97,1.25,1.12,3.46,1.12,6.65s-.15,5.41-1.12,6.65Zm-1.94-11.88c-.3-.43-.82-.67-1.4-.67s-1.06,.24-1.37,.67c-.58,.79-.64,2.4-.64,5.23s.06,4.44,.64,5.23c.3,.43,.79,.67,1.37,.67s1.09-.24,1.4-.67c.58-.79,.61-2.4,.61-5.23s-.03-4.44-.61-5.23Z"/><path class="b" d="M47.52,135.4c-1.67,0-2.86,1.09-2.86,2.89v10.72h-2.46v-15.74h2.37v1.67c.24-.43,.7-.85,1.09-1.12,.73-.52,1.58-.79,2.58-.79v2.37h-.73Z"/><path class="b" d="M62.83,149.02v-11.57c0-1.43-.82-2.16-1.85-2.16s-1.85,.73-1.85,2.16v11.57h-2.46v-11.57c0-1.43-.85-2.16-1.88-2.16s-1.85,.73-1.85,2.16v11.57h-2.46v-15.74h2.37v1.21c.21-.36,.64-.76,.97-.97,.49-.3,1.06-.49,1.7-.49,1.22,0,2.37,.67,3.01,1.64,.33-.43,.79-.88,1.25-1.15,.49-.3,1.21-.49,1.79-.49,1.37,0,2.16,.39,2.83,1.15,.64,.7,.91,1.55,.91,3.25v11.57h-2.46Z"/><path class="b" d="M74.37,149.02v-1.4c-.24,.43-.61,.82-.91,1.06-.49,.36-1,.58-1.85,.58-1.15,0-1.97-.36-2.7-1.18-.61-.7-1-1.88-1-3.52,0-1.46,.49-2.74,1.4-3.56,.79-.7,1.7-1.06,3.34-1.06h1.61v-2.49c0-1.46-.64-2.25-1.85-2.25-.55,0-.91,.21-1.21,.52-.43,.46-.58,.97-.58,1.82h-2.46c0-1.21,.27-2.4,1.22-3.34,.7-.7,1.82-1.15,3.04-1.15,1.28,0,2.34,.36,3.07,1.09,.76,.79,1.25,1.85,1.25,3.46v11.42h-2.34Zm-.12-7.29h-1.4c-.76,0-1.28,.12-1.76,.58-.46,.43-.73,1.31-.73,2.16,0,1.64,.64,2.64,1.91,2.64,1.18,0,1.97-1,1.97-2.46v-2.92Z"/><path class="b" d="M82,148.04c-.88-.73-1.37-1.88-1.37-3.52v-9.33h-1.79v-1.91h1.79v-4.31h2.46v4.31h2.43v1.91h-2.43v9.24c0,1.67,.88,2.37,2.52,2.37v2.22c-1.4,0-2.61-.12-3.62-.97Z"/><path class="b" d="M87.74,130.48v-2.86h2.89v2.86h-2.89Zm.21,18.53v-15.74h2.46v15.74h-2.46Z"/><path class="b" d="M101.2,147.8c-.79,1.06-1.94,1.46-3.34,1.46s-2.52-.39-3.31-1.46c-.97-1.25-1.15-3.46-1.15-6.65s.18-5.41,1.15-6.65c.79-1.06,1.91-1.46,3.31-1.46s2.55,.39,3.34,1.46c.97,1.25,1.12,3.46,1.12,6.65s-.15,5.41-1.12,6.65Zm-1.94-11.88c-.3-.43-.82-.67-1.4-.67s-1.06,.24-1.37,.67c-.58,.79-.64,2.4-.64,5.23s.06,4.44,.64,5.23c.3,.43,.79,.67,1.37,.67s1.09-.24,1.4-.67c.58-.79,.61-2.4,.61-5.23s-.03-4.44-.61-5.23Z"/><path class="b" d="M111.49,149.02v-11.57c0-1.43-.85-2.16-1.88-2.16s-1.85,.73-1.85,2.16v11.57h-2.46v-15.74h2.37v1.21c.21-.36,.64-.76,.97-.97,.49-.3,1.06-.49,1.7-.49,1.18,0,2.01,.39,2.67,1.15,.64,.7,.94,1.55,.94,3.25v11.57h-2.46Z"/><path class="b" d="M124.19,148.01c-.85,.88-1.94,1.25-3.22,1.25s-2.4-.43-3.16-1.22c-.91-.94-1.34-2.03-1.34-3.46h2.43c0,.82,.21,1.43,.67,1.91,.36,.36,.91,.55,1.4,.55,.64,0,1.09-.18,1.49-.58,.36-.36,.61-.94,.61-1.58,0-.55-.12-1-.39-1.43-.3-.46-.76-.79-1.4-1.12l-2.04-1.03c-1.03-.52-1.76-1.15-2.16-1.82-.33-.58-.49-1.25-.49-2.07,0-1.37,.52-2.4,1.31-3.19,.79-.79,1.88-1.18,3.1-1.18s2.31,.36,3.07,1.12c.82,.79,1.28,1.91,1.28,3.46h-2.43c0-.91-.18-1.46-.58-1.88-.36-.39-.85-.55-1.34-.55-.58,0-1.03,.18-1.37,.52-.39,.39-.58,.94-.58,1.52,0,.46,.09,.82,.27,1.15,.21,.36,.67,.73,1.31,1.03l2.01,1c1.06,.52,1.76,1.06,2.22,1.79,.43,.64,.67,1.52,.67,2.52,0,1.4-.55,2.49-1.34,3.28Z"/><path class="b" d="M130.15,148.04c-.88-.73-1.37-1.88-1.37-3.52v-9.33h-1.79v-1.91h1.79v-4.31h2.46v4.31h2.43v1.91h-2.43v9.24c0,1.67,.88,2.37,2.52,2.37v2.22c-1.4,0-2.61-.12-3.62-.97Z"/><path class="b" d="M138.08,141.72c0,2.49,.09,3.95,.64,4.65,.27,.39,.76,.67,1.4,.67,.55,0,1-.15,1.4-.61,.39-.46,.52-1.06,.52-1.82h2.46c-.03,1.46-.39,2.55-1.28,3.49-.76,.79-1.82,1.15-3.1,1.15s-2.31-.33-3.13-1.22c-1.18-1.25-1.4-3.61-1.4-6.9s.21-5.65,1.37-6.9c.82-.88,1.82-1.21,3.1-1.21s2.28,.33,3.1,1.21c1.18,1.25,1.4,3.59,1.4,7.47h-6.47Zm3.37-5.83c-.3-.39-.73-.64-1.4-.64s-1.06,.24-1.37,.64c-.49,.58-.61,1.7-.61,3.98h3.98c0-2.28-.12-3.4-.61-3.98Z"/><path class="b" d="M154.45,148.16c-.76,.76-1.82,1.09-3.1,1.09s-2.52-.39-3.31-1.46c-.97-1.25-1.15-3.49-1.15-6.65s.18-5.41,1.15-6.65c.79-1.06,1.98-1.46,3.31-1.46s2.25,.27,3.07,1.06c.97,.91,1.22,2.22,1.28,3.55h-2.46c0-.64-.06-1.31-.49-1.82-.33-.39-.76-.58-1.37-.58s-1.09,.24-1.4,.67c-.58,.76-.61,2.37-.61,5.23s.03,4.44,.61,5.23c.3,.43,.82,.67,1.4,.67,.55,0,1.03-.21,1.34-.58,.43-.49,.52-1.12,.52-1.85h2.46c-.06,1.49-.43,2.7-1.25,3.55Z"/><path class="b" d="M164.6,149.02v-11.57c0-1.46-.85-2.19-1.88-2.19s-1.85,.73-1.85,2.19v11.57h-2.46v-21.63h2.46v7.02c.21-.33,.58-.7,.88-.88,.49-.3,1.06-.49,1.7-.49,1.18,0,2.01,.39,2.67,1.15,.64,.7,.94,1.55,.94,3.25v11.57h-2.46Z"/><path class="b" d="M176.6,149.02v-11.57c0-1.43-.85-2.16-1.88-2.16s-1.85,.73-1.85,2.16v11.57h-2.46v-15.74h2.37v1.21c.21-.36,.64-.76,.97-.97,.49-.3,1.06-.49,1.7-.49,1.18,0,2.01,.39,2.67,1.15,.64,.7,.94,1.55,.94,3.25v11.57h-2.46Z"/><path class="b" d="M189.72,147.8c-.79,1.06-1.94,1.46-3.34,1.46s-2.52-.39-3.31-1.46c-.97-1.25-1.15-3.46-1.15-6.65s.18-5.41,1.15-6.65c.79-1.06,1.91-1.46,3.31-1.46s2.55,.39,3.34,1.46c.97,1.25,1.12,3.46,1.12,6.65s-.15,5.41-1.12,6.65Zm-1.94-11.88c-.3-.43-.82-.67-1.4-.67s-1.06,.24-1.37,.67c-.58,.79-.64,2.4-.64,5.23s.06,4.44,.64,5.23c.3,.43,.79,.67,1.37,.67s1.09-.24,1.4-.67c.58-.79,.61-2.4,.61-5.23s-.03-4.44-.61-5.23Z"/><path class="b" d="M195.09,148.04c-.85-.7-1.4-1.79-1.4-3.52v-17.13h2.46v17.04c0,1.55,.73,2.37,2.34,2.37v2.22c-1.34,0-2.46-.18-3.4-.97Z"/><path class="b" d="M208.07,147.8c-.79,1.06-1.94,1.46-3.34,1.46s-2.52-.39-3.31-1.46c-.97-1.25-1.15-3.46-1.15-6.65s.18-5.41,1.15-6.65c.79-1.06,1.91-1.46,3.31-1.46s2.55,.39,3.34,1.46c.97,1.25,1.12,3.46,1.12,6.65s-.15,5.41-1.12,6.65Zm-1.94-11.88c-.3-.43-.82-.67-1.4-.67s-1.06,.24-1.37,.67c-.58,.79-.64,2.4-.64,5.23s.06,4.44,.64,5.23c.3,.43,.79,.67,1.37,.67s1.09-.24,1.4-.67c.58-.79,.61-2.4,.61-5.23s-.03-4.44-.61-5.23Z"/><path class="b" d="M220.46,149.38c0,2.34-.39,3.49-1.28,4.41-.73,.76-1.88,1.21-3.1,1.21s-2.37-.36-3.16-1.12c-.88-.88-1.18-2.04-1.18-3.4h2.46c0,.76,.09,1.4,.52,1.88,.33,.33,.82,.52,1.34,.52,.58,0,1.03-.24,1.34-.58,.46-.49,.61-1.31,.61-2.76v-2.4c-.24,.33-.55,.67-.88,.88-.46,.33-1,.49-1.64,.49-1.06,0-1.91-.36-2.58-1.15-1-1.12-1.25-2.89-1.25-6.59s.24-5.44,1.25-6.59c.67-.76,1.49-1.12,2.58-1.12,.67,0,1.21,.15,1.7,.49,.33,.21,.67,.55,.88,.85v-1.09h2.4v16.1Zm-2.46-11.85c0-.85-.21-1.4-.61-1.79-.33-.33-.76-.49-1.28-.49-.58,0-1.03,.24-1.34,.64-.55,.67-.64,1.88-.64,4.89s.09,4.22,.64,4.92c.3,.36,.76,.64,1.34,.64,.52,0,.94-.18,1.28-.52,.39-.39,.61-.94,.61-1.79v-6.5Z"/><path class="b" d="M223.71,130.48v-2.86h2.89v2.86h-2.89Zm.21,18.53v-15.74h2.46v15.74h-2.46Z"/><path class="b" d="M231.82,141.72c0,2.49,.09,3.95,.64,4.65,.27,.39,.76,.67,1.4,.67,.55,0,1-.15,1.4-.61,.39-.46,.52-1.06,.52-1.82h2.46c-.03,1.46-.39,2.55-1.28,3.49-.76,.79-1.82,1.15-3.1,1.15s-2.31-.33-3.13-1.22c-1.18-1.25-1.4-3.61-1.4-6.9s.21-5.65,1.37-6.9c.82-.88,1.82-1.21,3.1-1.21s2.28,.33,3.1,1.21c1.18,1.25,1.4,3.59,1.4,7.47h-6.47Zm3.37-5.83c-.3-.39-.73-.64-1.4-.64s-1.06,.24-1.37,.64c-.49,.58-.61,1.7-.61,3.98h3.98c0-2.28-.12-3.4-.61-3.98Z"/></g><g><path class="b" d="M45.82,75.21l-18.04-31.95-9.07,10.85v21.1H5V5h13.71v30.57L43.46,5h16.66l-23.27,27.91,24.95,42.3h-15.97Z"/><path class="b" d="M67.22,75.21V5h13.71V75.21h-13.71Z"/><path class="b" d="M120.76,17.23v57.98h-13.71V17.23h-18.34V5h50.39v12.23h-18.34Z"/><path class="b" d="M146.89,75.21V5h46.25v12.23h-32.54v16.47h27.71v12.23h-27.71v17.06h32.54v12.23h-46.25Z"/></g><polygon class="b" points="266.41 5 233.18 5 258.23 30.06 233.18 55.11 266.42 55.11 266.41 5"/><polygon class="c" points="216.24 5 216.24 55.11 241.3 30.06 216.24 5"/></svg>